<svg xmlns="http://www.w3.org/2000/svg" viewBox="0 0 820 600" font-family="Segoe UI, Helvetica, Arial, sans-serif">
  <defs>
    <marker id="ah3" markerWidth="10" markerHeight="10" refX="8" refY="3" orient="auto" markerUnits="strokeWidth">
      <path d="M0,0 L8,3 L0,6 Z" fill="#334155"/>
    </marker>
  </defs>
  <rect width="820" height="600" fill="#f8fafc"/>
  <text x="410" y="30" text-anchor="middle" font-size="20" font-weight="700" fill="#0f172a">模块依赖图</text>
  <text x="410" y="50" text-anchor="middle" font-size="12" fill="#64748b">@agent-harness/core 内部模块（分组）+ 包级依赖</text>

  <!-- index barrel -->
  <rect x="250" y="64" width="320" height="38" rx="8" fill="#0f172a"/>
  <text x="410" y="88" text-anchor="middle" font-size="12" font-weight="700" fill="#fff">index.ts（barrel：统一导出 public API）</text>

  <!-- harness -->
  <rect x="300" y="120" width="220" height="54" rx="8" fill="#7c3aed"/>
  <text x="410" y="144" text-anchor="middle" font-size="12" font-weight="700" fill="#fff">harness.ts</text>
  <text x="410" y="162" text-anchor="middle" font-size="10" fill="#ede9fe">AgentHarness + run() 编排循环</text>

  <!-- Row 2 -->
  <rect x="40" y="210" width="200" height="60" rx="8" fill="#2563eb"/>
  <text x="140" y="234" text-anchor="middle" font-size="12" font-weight="700" fill="#fff">tools.ts</text>
  <text x="140" y="252" text-anchor="middle" font-size="10" fill="#dbeafe">ToolRegistry</text>
  <text x="140" y="266" text-anchor="middle" font-size="9" fill="#bfdbfe">schemas / call / mergeFrom</text>

  <rect x="260" y="210" width="200" height="60" rx="8" fill="#2563eb"/>
  <text x="360" y="234" text-anchor="middle" font-size="12" font-weight="700" fill="#fff">memory.ts</text>
  <text x="360" y="252" text-anchor="middle" font-size="10" fill="#dbeafe">Memory（窗口+长期+摘要）</text>
  <text x="360" y="266" text-anchor="middle" font-size="9" fill="#bfdbfe">系统提示注入 / load·save</text>

  <rect x="480" y="210" width="200" height="60" rx="8" fill="#2563eb"/>
  <text x="580" y="234" text-anchor="middle" font-size="12" font-weight="700" fill="#fff">llm/*</text>
  <text x="580" y="252" text-anchor="middle" font-size="10" fill="#dbeafe">openrouter / openai</text>
  <text x="580" y="266" text-anchor="middle" font-size="9" fill="#bfdbfe">shared / failover / pricing</text>

  <rect x="700" y="210" width="100" height="60" rx="8" fill="#0d9488"/>
  <text x="750" y="234" text-anchor="middle" font-size="11" font-weight="700" fill="#fff">builtins/*</text>
  <text x="750" y="254" text-anchor="middle" font-size="9" fill="#ccfbf1">fs/web/calc/dt/shell</text>

  <!-- Row 3 -->
  <rect x="40" y="320" width="200" height="54" rx="8" fill="#e2e8f0" stroke="#94a3b8" stroke-dasharray="5,3"/>
  <text x="140" y="344" text-anchor="middle" font-size="12" font-weight="700" fill="#475569">guardrails.ts</text>
  <text x="140" y="362" text-anchor="middle" font-size="10" fill="#64748b">leaf · 三层护栏 + PII</text>

  <rect x="260" y="320" width="200" height="54" rx="8" fill="#e2e8f0" stroke="#94a3b8" stroke-dasharray="5,3"/>
  <text x="360" y="344" text-anchor="middle" font-size="12" font-weight="700" fill="#475569">telemetry.ts</text>
  <text x="360" y="362" text-anchor="middle" font-size="10" fill="#64748b">leaf · OTel 可选降级</text>

  <rect x="480" y="320" width="200" height="54" rx="8" fill="#0d9488"/>
  <text x="580" y="344" text-anchor="middle" font-size="12" font-weight="700" fill="#fff">skills/*</text>
  <text x="580" y="362" text-anchor="middle" font-size="10" fill="#ccfbf1">SkillRegistry + use_skill</text>

  <rect x="700" y="320" width="100" height="54" rx="8" fill="#0d9488"/>
  <text x="750" y="344" text-anchor="middle" font-size="11" font-weight="700" fill="#fff">integrations/*</text>
  <text x="750" y="362" text-anchor="middle" font-size="9" fill="#ccfbf1">harness/mcp/k8s</text>

  <!-- Row 4 leaves -->
  <rect x="40" y="430" width="200" height="48" rx="8" fill="#f1f5f9" stroke="#cbd5e1" stroke-dasharray="5,3"/>
  <text x="140" y="459" text-anchor="middle" font-size="11" font-weight="700" fill="#475569">memory-store.ts（leaf）</text>

  <rect x="300" y="430" width="220" height="48" rx="8" fill="#f1f5f9" stroke="#cbd5e1" stroke-dasharray="5,3"/>
  <text x="410" y="459" text-anchor="middle" font-size="11" font-weight="700" fill="#475569">types.ts（leaf · 契约基座）</text>

  <rect x="700" y="430" width="100" height="48" rx="8" fill="#f1f5f9" stroke="#cbd5e1" stroke-dasharray="5,3"/>
  <text x="750" y="459" text-anchor="middle" font-size="10" font-weight="700" fill="#475569">env-platform.types</text>

  <!-- EDGES -->
  <path d="M410,102 L410,120" stroke="#334155" stroke-width="2" fill="none" marker-end="url(#ah3)"/>
  <path d="M360,174 L240,210" stroke="#334155" stroke-width="1.6" fill="none" marker-end="url(#ah3)"/>
  <path d="M410,174 L360,210" stroke="#334155" stroke-width="1.6" fill="none" marker-end="url(#ah3)"/>
  <path d="M460,174 L490,210" stroke="#334155" stroke-width="1.6" fill="none" marker-end="url(#ah3)"/>
  <!-- <path d="M380,174 L140,260" stroke="#334155" stroke-width="1.6" fill="none" marker-end="url(#ah3)"/> -->
  <!-- <path d="M410,174 L580,210" stroke="#334155" stroke-width="1.6" fill="none" marker-end="url(#ah3)"/> -->
  <!-- tools -> types -->
  <path d="M140,270 L300,430" stroke="#16a34a" stroke-width="1.6" fill="none" marker-end="url(#ah3)"/>
  <!-- memory -> types, memory-store -->
  <path d="M330,270 L360,430" stroke="#16a34a" stroke-width="1.6" fill="none" marker-end="url(#ah3)"/>
  <path d="M300,270 L140,430" stroke="#16a34a" stroke-width="1.6" fill="none" marker-end="url(#ah3)"/>
  <!-- llm -> types, telemetry(failover) -->
  <path d="M540,270 L430,430" stroke="#16a34a" stroke-width="1.6" fill="none" marker-end="url(#ah3)"/>
  <path d="M540,270 L360,320" stroke="#dc2626" stroke-width="1.4" stroke-dasharray="4,3" fill="none" marker-end="url(#ah3)"/>
  <!-- builtins/skills/integrations -> tools -->
  <path d="M730,270 L240,300" stroke="#0d9488" stroke-width="1.6" fill="none" marker-end="url(#ah3)"/>
  <path d="M560,320 L240,300" stroke="#0d9488" stroke-width="1.6" fill="none" marker-end="url(#ah3)"/>
  <path d="M730,320 L240,300" stroke="#0d9488" stroke-width="1.6" fill="none" marker-end="url(#ah3)"/>
  <!-- integrations -> telemetry, env-types -->
  <path d="M730,320 L360,320" stroke="#dc2626" stroke-width="1.4" stroke-dasharray="4,3" fill="none" marker-end="url(#ah3)"/>
  <path d="M750,374 L750,430" stroke="#16a34a" stroke-width="1.6" fill="none" marker-end="url(#ah3)"/>

  <!-- legend -->
  <text x="40" y="520" font-size="11" font-weight="700" fill="#0f172a">图例</text>
  <line x1="40" y1="538" x2="90" y2="538" stroke="#334155" stroke-width="2"/><text x="98" y="542" font-size="10" fill="#475569">模块依赖（uses）</text>
  <line x1="240" y1="538" x2="290" y2="538" stroke="#16a34a" stroke-width="2"/><text x="298" y="542" font-size="10" fill="#475569">→ types（契约基座）</text>
  <line x1="470" y1="538" x2="520" y2="538" stroke="#dc2626" stroke-width="2" stroke-dasharray="4,3"/><text x="528" y="542" font-size="10" fill="#475569">→ 可选外部（OTel 等）</text>

  <!-- package-level note -->
  <rect x="40" y="556" width="740" height="40" rx="8" fill="#ffffff" stroke="#cbd5e1"/>
  <text x="56" y="581" font-size="11" fill="#334155">包级依赖：server → core　·　webapp → client → server(/api/v1)　·　cli → client　·　examples → core　|　构建顺序 core → client → server → webapp/cli → examples</text>
</svg>
